<?xml version="1.0" encoding="UTF-8"?>
<svg id="Layer_2" data-name="Layer 2" xmlns="http://www.w3.org/2000/svg" xmlns:xlink="http://www.w3.org/1999/xlink" viewBox="0 0 337.79 128.63">
  <defs>
    <style>
      .cls-1 {
        fill: #d8e0e6;
      }

      .cls-2 {
        fill: #121227;
      }

      .cls-3 {
        fill: url(#Unbenannter_Verlauf_12);
      }
    </style>
    <linearGradient id="Unbenannter_Verlauf_12" data-name="Unbenannter Verlauf 12" x1="-21.04" y1="105.91" x2="77.91" y2="6.96" gradientUnits="userSpaceOnUse">
      <stop offset=".3" stop-color="#fdc400"/>
      <stop offset="1" stop-color="#ffd776"/>
    </linearGradient>
  </defs>
  <g id="Ebene_1" data-name="Ebene 1">
    <path class="cls-3" d="m72.6,72.58V2.8c0-1.55-1.25-2.8-2.8-2.8H2.81C1.26,0,.01,1.25.01,2.8v66.98c0,1.55,1.25,2.8,2.8,2.8h30.91c1.61,0,2.93,1.36,2.8,2.97-1.45,17.56-16.02,26-33.85,27.09-1.48.09-2.63,1.32-2.62,2.8l-.04,20.39c0,1.56,1.38,2.83,2.94,2.79,38.6-.93,69.66-17.07,69.66-56.04Z"/>
    <path class="cls-2" d="m190.59,3.38l-16.87,66.34c-.61,2.45-1.94,2.86-4.29,2.86h-5.62c-2.45,0-3.78-.51-4.29-2.76l-10.73-40.58c-.82-3.27-1.53-7.67-1.63-11.55h-.72c-.1,3.88-.82,7.97-1.74,11.45l-10.84,40.58c-.61,2.45-1.94,2.86-4.29,2.86h-5.52c-2.45,0-3.78-.41-4.4-2.76L102.88,3.38C102.27,1.03,102.58,0,105.13,0h7.16c2.86,0,4.09.51,4.6,3.07l8.38,38.13c.71,3.58,1.43,11.86,1.63,13.7h.61c.1-2.15,1.02-9.71,2.04-13.7l10.32-37.82c.72-2.56,2.04-3.07,4.6-3.07h5.52c2.66,0,3.99.51,4.6,3.07l10.12,37.82c1.12,4.4,2.04,11.76,2.15,13.7h.61c.1-1.63,1.02-9.61,1.84-13.6l8.18-38.23C178.01.51,179.24,0,182.1,0h6.23c2.45,0,2.86,1.02,2.25,3.37Z"/>
    <path class="cls-2" d="m247.53,3.48v5.01c0,2.56-.92,3.48-3.58,3.48h-31.28v17.89h26.47c2.56,0,3.47.92,3.47,3.47v5.01c0,2.56-.92,3.47-3.47,3.47h-26.47v18.81h32.4c2.66,0,3.47.92,3.47,3.48v5.01c0,2.55-.82,3.47-3.47,3.47h-41.71c-2.66,0-3.58-.92-3.58-3.47V3.48c0-2.56.92-3.48,3.58-3.48h40.58c2.66,0,3.58.92,3.58,3.48Z"/>
    <path class="cls-2" d="m311.84,19.12c0,7.36-2.45,12.27-7.77,15.43v.41c6.64,2.35,10.43,8.48,10.43,17.68,0,12.88-9.61,19.93-23,19.93h-28.93c-2.66,0-3.58-.92-3.58-3.47V3.48c0-2.56.92-3.48,3.58-3.48h28.31c13.19,0,20.96,6.85,20.96,19.12Zm-22.49-7.16h-17.48v17.99h17.48c6.03,0,9.4-2.86,9.4-9s-3.27-9-9.4-9Zm1.84,29.64h-19.32v19.01h19.32c6.34,0,9.71-3.17,9.71-9.4s-3.37-9.61-9.71-9.61Z"/>
    <g>
      <path class="cls-1" d="m117.18,93.76c6.36,0,9.61,2.31,11.7,6.71.49,1.02.22,1.56-.84,2.05l-2.45,1.07c-.98.44-1.38.27-1.91-.76-1.2-2.36-2.98-3.74-6.49-3.74-4.31,0-6.45,1.33-6.45,4.09,0,3.2,3.65,3.78,7.69,4.22,5.25.58,11.29,1.87,11.29,9.29,0,5.91-4.49,9.96-12.67,9.96-6.89,0-10.41-2.62-12.23-7.43-.4-1.11-.13-1.6.93-1.96l2.45-.89c1.02-.36,1.47-.13,1.91.93,1.11,2.62,3.47,4.14,6.94,4.14,4.58,0,7.07-1.42,7.07-4.62s-3.29-3.74-7.03-4.14c-5.42-.58-12.09-1.42-12.09-9.2,0-5.65,4.18-9.74,12.18-9.74Z"/>
      <path class="cls-1" d="m146.75,93.76c8.14,0,12.67,4.45,12.67,11.61v9.69c0,7.16-4.54,11.61-12.67,11.61s-12.72-4.45-12.72-11.61v-9.69c0-7.16,4.54-11.61,12.72-11.61Zm0,5.2c-4.58,0-7.11,2.22-7.11,6.36v9.78c0,4.14,2.53,6.36,7.11,6.36s7.12-2.22,7.12-6.36v-9.78c0-4.14-2.58-6.36-7.12-6.36Z"/>
      <path class="cls-1" d="m169.17,95.93v24.86h12.76c1.11,0,1.51.4,1.51,1.51v2.18c0,1.11-.4,1.51-1.51,1.51h-16.81c-1.16,0-1.56-.4-1.56-1.51v-28.55c0-1.11.4-1.51,1.56-1.51h2.53c1.11,0,1.51.4,1.51,1.51Z"/>
      <path class="cls-1" d="m198.73,121.46c4.58,0,6.85-2.31,6.85-6.27v-19.25c0-1.11.4-1.51,1.51-1.51h2.53c1.16,0,1.51.4,1.51,1.51v19.21c0,6.98-4.22,11.52-12.41,11.52s-12.45-4.54-12.45-11.52v-19.21c0-1.11.4-1.51,1.51-1.51h2.58c1.11,0,1.51.4,1.51,1.51v19.25c0,3.96,2.27,6.27,6.85,6.27Z"/>
      <path class="cls-1" d="m239.07,95.93v2.18c0,1.11-.4,1.51-1.51,1.51h-7.65v24.86c0,1.11-.4,1.51-1.51,1.51h-2.58c-1.11,0-1.51-.4-1.51-1.51v-24.86h-7.65c-1.16,0-1.51-.4-1.51-1.51v-2.18c0-1.11.36-1.51,1.51-1.51h20.9c1.11,0,1.51.4,1.51,1.51Z"/>
      <path class="cls-1" d="m244.57,94.42h2.53c1.11,0,1.51.4,1.51,1.51v28.55c0,1.11-.4,1.51-1.51,1.51h-2.53c-1.16,0-1.56-.4-1.56-1.51v-28.55c0-1.11.4-1.51,1.56-1.51Z"/>
      <path class="cls-1" d="m266.21,93.76c8.14,0,12.67,4.45,12.67,11.61v9.69c0,7.16-4.54,11.61-12.67,11.61s-12.72-4.45-12.72-11.61v-9.69c0-7.16,4.54-11.61,12.72-11.61Zm0,5.2c-4.58,0-7.11,2.22-7.11,6.36v9.78c0,4.14,2.53,6.36,7.11,6.36s7.12-2.22,7.12-6.36v-9.78c0-4.14-2.58-6.36-7.12-6.36Z"/>
      <path class="cls-1" d="m308.41,95.93v28.55c0,1.11-.36,1.51-1.51,1.51h-2.53c-.76,0-1.11-.18-1.47-.76l-10.89-16.1c-2.09-3.11-3.47-7.2-3.65-7.47h-.27c0,.36.98,4.62.98,8.85v13.96c0,1.11-.4,1.51-1.51,1.51h-2.36c-1.16,0-1.56-.4-1.56-1.51v-28.55c0-1.11.4-1.51,1.56-1.51h2.53c.8,0,1.16.27,1.47.71l10.81,16.01c2.27,3.38,3.51,7.2,3.74,7.56h.27c0-.45-.98-4.49-.98-8.98v-13.78c0-1.11.4-1.51,1.51-1.51h2.36c1.16,0,1.51.4,1.51,1.51Z"/>
      <path class="cls-1" d="m325.25,93.76c6.36,0,9.61,2.31,11.7,6.71.49,1.02.22,1.56-.84,2.05l-2.45,1.07c-.98.44-1.38.27-1.91-.76-1.2-2.36-2.98-3.74-6.49-3.74-4.31,0-6.45,1.33-6.45,4.09,0,3.2,3.65,3.78,7.69,4.22,5.25.58,11.29,1.87,11.29,9.29,0,5.91-4.49,9.96-12.67,9.96-6.89,0-10.41-2.62-12.23-7.43-.4-1.11-.13-1.6.93-1.96l2.45-.89c1.02-.36,1.47-.13,1.91.93,1.11,2.62,3.47,4.14,6.94,4.14,4.58,0,7.07-1.42,7.07-4.62s-3.29-3.74-7.03-4.14c-5.42-.58-12.09-1.42-12.09-9.2,0-5.65,4.18-9.74,12.18-9.74Z"/>
    </g>
  </g>
</svg>